<svg xmlns="http://www.w3.org/2000/svg" baseProfile="full" version="1.1" width="300px" height="300px" style="fill: none; width: 300px; height: 300px; stroke-width: 20;"><path d="" style="stroke-width: 10; stroke-linecap: round; stroke-linejoin: round; stroke: rgb(68, 68, 68); fill: none;"></path><path d="" style="stroke-width: 10; stroke-linecap: round; stroke-linejoin: round; stroke: rgb(119, 119, 119); fill: none;"></path><path d="M60,120 A60,0 0 0,0 120,120 M150,60 A30,30 0 0,1 180,90 A0,0 0 0,1 180,90 A30,30 0 0,1 210,60 M60,120 L60,120 L60,90 A30,30 0 0,1 90,60 M60,120 L60,120 L60,150 A30,30 0 0,0 90,180 M150,120 L150,120 L210,120 M150,180 A30,30 0 0,0 180,150 A0,0 0 0,0 180,150 A30,30 0 0,0 210,180 " style="stroke-width: 20; stroke-linecap: square; stroke-linejoin: miter; stroke: rgb(255, 255, 255); fill: none;"></path></svg>